<?xml version="1.0" standalone="no"?>
<!DOCTYPE svg PUBLIC "-//W3C//DTD SVG 20010904//EN"
 "http://www.w3.org/TR/2001/REC-SVG-20010904/DTD/svg10.dtd">
<svg version="1.0" xmlns="http://www.w3.org/2000/svg"
 width="500.000000pt" height="500.000000pt" viewBox="0 0 500.000000 500.000000"
 preserveAspectRatio="xMidYMid meet">
<metadata>
Created by potrace 1.14, written by Peter Selinger 2001-2017
</metadata>
<g transform="translate(0.000000,500.000000) scale(0.100000,-0.100000)"
fill="#000000" stroke="none">
<path d="M544 3397 c11 -63 19 -245 20 -427 l1 -185 -147 -3 -148 -3 0 -264 0
-265 149 0 148 0 -2 -227 c-2 -211 -9 -354 -21 -445 l-5 -38 52 0 51 0 -6 48
c-10 86 -19 295 -20 477 l-1 180 231 3 231 2 138 -317 c215 -494 187 -441 228
-441 35 0 39 3 66 71 5 12 69 172 143 355 l133 332 215 -2 215 -3 -1 -170 c-1
-167 -10 -409 -19 -492 l-5 -43 223 0 223 0 -2 31 c-1 17 -5 63 -9 103 -4 39
-9 185 -10 324 l-3 252 128 0 c125 0 128 -1 132 -22 10 -60 -2 -483 -18 -633
l-6 -55 224 0 225 0 -3 23 c-10 68 -15 159 -20 410 l-7 277 386 0 385 0 -3
-262 c-2 -145 -7 -285 -10 -313 -3 -27 -7 -69 -10 -92 l-5 -43 226 0 226 0 -6
48 c-13 108 -19 229 -21 440 l-2 222 149 0 148 0 0 265 0 265 -148 0 -149 0 3
193 c2 184 8 307 20 410 l5 47 -225 0 -226 0 5 -32 c11 -84 16 -180 20 -390
l4 -228 -386 0 -386 0 6 248 c3 136 8 261 11 277 2 17 6 50 7 75 l4 45 -224 3
-223 2 6 -57 c11 -102 19 -294 20 -443 l1 -145 -131 -3 -131 -3 2 208 c2 170
11 378 18 428 1 6 -76 11 -210 13 l-213 2 -16 -37 c-8 -21 -40 -99 -71 -173
-30 -74 -60 -148 -68 -165 -7 -16 -35 -84 -63 -150 l-51 -120 -323 -3 -324 -2
-39 87 c-21 49 -54 121 -72 161 -18 39 -33 74 -33 76 0 2 -17 42 -38 88 -21
45 -54 118 -72 161 l-34 78 -234 -1 -234 -1 6 -32z m1671 -352 l0 -265 -107 0
c-60 0 -108 2 -108 5 0 3 7 22 16 43 9 20 44 107 78 192 35 85 67 164 71 175
5 11 9 22 10 25 4 12 37 90 39 90 0 0 1 -119 1 -265z m-1515 70 c40 -93 88
-203 107 -243 18 -40 33 -77 33 -83 0 -6 -41 -9 -112 -7 l-113 3 0 257 c0 141
3 254 6 250 3 -4 38 -83 79 -177z m1017 -877 c-3 -7 -17 -42 -32 -78 -15 -36
-34 -81 -42 -100 l-14 -35 -40 90 c-69 152 -73 135 37 135 73 0 95 -3 91 -12z"/>
</g>
</svg>
